PathFileType	4	(X/Y/Z)	C:/Users/beibeiliu/ov580/test_trc\sequence.17_training_dense_right.trc
DataRate	CameraRate	NumFrames	NumMarkers	Units	OrigDataRate	OrigDataStartFrame	OrigNumFrames
120	120	20	19	mm	120	38	303
Frame#	Time	ThumbCMC			ThumbMCP			ThumbIP			ThumbTip			IndexMCP			IndexPIP			IndexTip			MiddleMCP			MiddlePIP			MiddleTip			RingMCP			RingPIP			RingTip			PinkyMCP			PinkyPIP			PinkyTip			BackHand1			BackHand2			BackHand3	
		X0	Y0	Z0	X1	Y1	Z1	X2	Y2	Z2	X3	Y3	Z3	X4	Y4	Z4	X5	Y5	Z5	X6	Y6	Z6	X7	Y7	Z7	X8	Y8	Z8	X9	Y9	Z9	X10	Y10	Z10	X11	Y11	Z11	X12	Y12	Z12	X13	Y13	Z13	X14	Y14	Z14	X15	Y15	Z15	X16	Y16	Z16	X17	Y17	Z17	X18	Y18	Z18	
37	0.308333	198.057	-0.251454	43.8765	180.359	-7.63928	25.5688	160.766	-4.02093	9.7418	147.127	-2.98704	5.78624	214.896	21.6882	-19.9442	219.036	23.5428	-40.998	218.151	27.1451	-64.3584	226.025	-5.73931	-25.5692	220.199	-33.4747	-19.5238	214.612	-26.0562	12.5405	240.334	-15.5724	-15.1212	224.56	-35.8617	0.356484	220.835	-22.7433	21.9724	253.481	-22.9241	-4.70387	235.745	-35.8128	8.97892	229.083	-17.6787	25.9627	247.7	15.0163	25.946	247.623	13.6255	49.7125	221.717	20.7937	34.1465	
38	0.316667	197.708	0.985694	44.0864	182.424	-6.88087	24.485	163.812	-3.62723	9.26626	150.886	-4.45045	6.3145	216.762	23.6801	-23.4503	218.086	26.1556	-43.9029	221.842	27.1719	-65.9485	229.928	-4.29561	-24.4859	218.104	-30.8892	-22.2091	211.184	-25.218	10.9503	238.058	-16.8406	-16.4507	227.818	-35.9039	-3.93595	221.258	-21.9608	21.0533	254.331	-19.4911	-5.07517	239.981	-36.1374	4.88054	230.389	-20.5115	23.289	247.69	13.6076	25.6686	245.003	13.5923	49.7428	223.58	22.2866	35.7034	
39	0.325	194.596	1.98619	42.9099	182.691	-4.75489	19.3485	168.014	-3.2904	5.94799	152.706	-3.85805	3.5819	214.536	24.3516	-18.6398	217.542	28.1421	-41.2305	221.326	30.5835	-64.4041	226.581	-2.68125	-27.5767	219.193	-31.4717	-21.2522	215.08	-24.109	10.1069	241.489	-17.6812	-17.3324	226.365	-34.1891	-3.93488	223.153	-19.7119	20.8371	252.138	-17.9743	-7.27912	238.018	-35.2333	4.86285	232.669	-18.1793	24.7169	251.444	13.9027	24.4579	248.632	11.1531	52.4867	222.848	23.0874	35.3745	
40	0.333333	196.778	3.57839	39.2616	185.367	-5.91915	20.2572	168.247	-4.09344	7.58029	153.891	-1.5631	0.440174	216.788	26.9251	-19.8187	223.05	28.0409	-41.4325	227.134	31.8357	-66.4628	232.586	-1.45734	-26.1282	221.171	-27.6502	-25.3228	215.63	-24.2698	8.44171	245.779	-13.443	-15.3323	228.825	-33.1096	-5.46824	226.229	-23.0145	20.2304	257.663	-19.9476	-6.95773	240.788	-35.2409	4.98985	235.038	-20.4759	25.0258	250.076	15.1713	23.7084	249.22	13.6814	51.7072	226.636	20.5521	35.7789	
41	0.341667	199.597	3.07643	38.9174	185.648	-6.35102	21.3806	171.085	-3.31373	3.7086	152.667	-1.44687	-1.87613	216.743	29.0948	-21.0548	223.13	30.794	-42.8182	225.313	34.6035	-62.9701	230.736	-0.910421	-29.1865	224.574	-28.1414	-24.0627	219.394	-22.0296	8.71645	245.137	-14.3216	-18.0746	229.943	-31.3599	-8.44279	228.454	-18.767	20.656	259.85	-16.5856	-6.77122	238.81	-31.2381	3.65757	236.089	-20.3955	23.4141	252.428	17.0578	25.6351	249.204	12.5984	48.2481	223.603	22.3763	36.236	
42	0.35	201.118	4.13646	36.7481	188.321	-6.15253	18.7405	170.294	-3.28266	2.13524	153.033	-1.30539	-3.52024	221.899	29.7734	-23.9134	225.522	31.7238	-41.4162	228.925	36.3027	-62.7244	234.766	0.0580187	-29.3507	227.358	-25.5335	-27.3316	218.677	-22.7522	6.248	243.62	-9.13911	-17.7363	230.875	-30.079	-6.89072	225.003	-19.0823	16.5555	260.996	-15.3045	-7.51487	243.839	-32.2037	0.969266	235.539	-17.1817	23.3314	252.033	18.8508	25.2569	250.352	14.7519	48.1049	224.296	24.1209	32.4054	
43	0.358333	197.551	4.26414	35.8234	189.783	-5.80757	15.2963	173.609	-5.12145	0.674224	159.013	-4.51776	-6.48122	220.843	30.6419	-20.0105	223.604	37.2572	-46.1042	227.778	40.8013	-63.022	233.711	6.40435	-26.221	223.974	-22.5983	-28.5377	217.589	-22.326	2.29237	246.29	-4.78812	-18.7508	231.079	-27.1855	-6.8072	229.807	-17.9102	17.3697	261.055	-12.7966	-9.61534	242.695	-26.9186	-0.543304	236.552	-14.3666	21.0287	250.017	21.5314	24.9723	248.032	18.699	48.3373	225.907	24.1118	35.5587	
44	0.366667	200.807	4.32078	30.8931	190.465	-6.4754	13.4304	175.03	-7.50662	-2.17207	158.848	-8.00366	-10.5514	218.028	35.1743	-26.2935	220.604	38.1211	-44.5213	230.464	43.1266	-65.31	232.292	7.49088	-30.2025	229.031	-21.2805	-28.7178	219.276	-19.4758	1.85882	246.083	-5.24677	-20.8426	232.387	-25.0696	-8.08533	230.033	-14.5941	15.6116	257.68	-5.6448	-9.50334	244.525	-23.8354	0.460739	235.01	-9.10904	16.9541	249.138	27.218	20.309	245.558	19.189	50.2386	220.708	26.3487	34.2467	
45	0.375	198.905	3.96341	29.4275	188.089	-7.35513	8.7486	171.876	-9.44261	-5.28699	156.516	-12.0447	-13.6484	216.497	33.5758	-24.1586	217.277	37.7237	-47.8614	224.605	44.0973	-70.4307	231.142	10.1004	-31.76	228.233	-18.5018	-33.1771	221.511	-18.6669	0.590687	245.382	2.05233	-20.0344	234.702	-22.6842	-9.61349	228.362	-12.6088	14.6741	260.81	-4.71683	-11.358	246.341	-19.5738	-4.14285	237.295	-9.39571	20.382	243.334	28.6714	20.4797	244.621	24.7979	49.9085	215.019	29.1777	28.9487	
46	0.383333	193.935	4.22498	27.3187	188.522	-7.65123	7.99225	171.413	-12.5519	-9.91971	162.259	-16.3884	-16.3823	210.47	32.4893	-29.694	218.036	36.1704	-50.8444	224.882	41.4245	-75.0297	232.125	10.0666	-32.3096	229.67	-19.8546	-31.3682	222.389	-17.9494	-0.291417	245.025	3.62135	-21.6786	235.677	-21.2729	-10.2427	228.018	-10.0671	13.731	262.03	-2.84851	-12.0088	246.85	-18.9334	2.02509	234.75	-4.64494	15.929	245.697	31.8287	15.1258	241.277	30.653	42.9899	216.024	31.2356	26.8161	
47	0.391667	195.947	6.36782	28.5595	185.336	-9.22239	7.32097	172.547	-15.5121	-7.82339	163.467	-19.7498	-21.2348	207.925	29.2046	-32.8864	218.4	32.5137	-55.3539	218.824	34.7532	-76.607	234.739	7.55181	-34.4991	232.137	-22.2685	-28.0338	220.026	-16.7437	1.31922	246.633	3.95949	-21.8358	239.685	-21.3797	-6.74632	228.675	-9.50513	13.2163	260.152	1.12183	-11.142	245.727	-15.0512	-1.63589	232.739	-3.25117	15.7339	241.991	36.7315	15.5378	234.279	34.6755	43.5321	211.242	32.6426	26.5214	
48	0.4	191.789	6.64651	25.3679	185.261	-10.3086	8.12336	174.024	-18.484	-11.0528	165.578	-24.9634	-17.846	211.385	27.317	-41.0319	212.688	26.0973	-57.6037	222.079	27.6192	-77.6173	235.202	5.66906	-35.2922	233.704	-22.3671	-28.9033	221.766	-17.414	1.50541	245.016	2.47198	-23.3767	241.204	-19.6671	-9.16332	229.114	-4.03316	16.711	260.477	4.93877	-9.68165	250.87	-14.7947	3.59897	233.019	-1.43729	16.2529	238.532	38.368	13.7853	232.783	40.6042	37.6979	207.905	35.0639	21.1992	
49	0.408333	192.881	9.89628	21.5218	185.78	-9.19496	1.70305	175.321	-19.4504	-8.86805	165.057	-26.7758	-20.3933	212.34	22.5565	-40.1254	219.589	20.2458	-64.4802	226.162	19.9624	-84.7342	231.46	6.17072	-34.8983	238.432	-24.2937	-23.2719	224.573	-17.8252	2.13895	249.534	0.290535	-20.9135	239.649	-19.6397	-7.10054	227.266	-3.52027	16.9364	258.209	6.52166	-9.92975	250.682	-12.4742	5.63313	232.52	-1.10483	17.6479	236.981	40.574	8.02701	228.06	41.9845	33.4236	206.574	38.3267	17.1592	
50	0.416667	188.471	10.274	17.286	183.527	-9.91038	4.38397	176.018	-19.8135	-9.05366	163.455	-27.9399	-19.8533	212.288	19.4663	-45.3294	219.629	14.7792	-64.8675	227.541	12.3312	-83.0437	235.131	-1.00553	-36.5717	236.444	-25.4598	-24.8452	227.337	-15.7668	5.89417	251.103	-0.4039	-19.3993	242.166	-19.4338	-3.33639	228.28	-1.78866	18.3827	258.967	4.30044	-7.80081	246.363	-12.2988	4.52928	234.555	2.81937	21.1083	234.062	40.5847	2.20663	225.959	47.0938	28.6159	206.977	39.0238	14.1117	
51	0.425	185.66	11.8539	18.7108	185.165	-8.29783	0.899819	177.999	-20.3806	-10.1714	164.73	-29.1212	-20.2406	215.175	16.1341	-43.4404	223.635	8.43509	-61.5846	229.149	3.321	-84.3661	236.094	0.483532	-33.4261	238.261	-27.2909	-21.6377	220.972	-16.2324	6.75978	252.42	-0.309602	-17.0329	237.995	-19.8221	1.04996	226.632	-0.602141	18.938	259.034	2.40648	-6.39841	250.615	-11.0254	9.2136	229.746	6.71586	20.5478	234.365	41.1309	0.107094	227.651	49.9839	27.6806	203.762	40.5957	8.61241	
52	0.433333	185.335	14.4022	14.3253	182.52	-8.4122	2.30849	177.398	-21.0832	-12.2445	163.531	-29.0846	-17.2344	218.932	10.0937	-47.9159	224.272	1.46863	-66.6829	237.433	-4.54849	-85.4033	239.56	-5.71286	-32.9465	236.463	-29.6793	-17.9557	223.886	-14.4937	9.44504	249.577	-5.64125	-16.6924	239.513	-19.6014	3.0131	224.978	0.424425	19.1476	258.759	2.77528	-5.65076	246.246	-11.4451	9.90145	228.906	5.55736	19.3039	236.55	41.9052	-0.751587	222.3	50.2605	25.6666	206.557	40.0162	5.3578	
53	0.441667	185.837	16.1991	13.199	180.301	-6.58683	2.93618	174.271	-19.5752	-8.5635	159.668	-29.1529	-19.1378	218.488	6.86081	-45.6979	227.865	-3.03603	-61.1225	238.003	-12.4607	-78.9842	236.603	-8.5184	-31.8528	236.837	-32.4872	-9.84246	223.687	-15.2607	12.1207	251.853	-9.25333	-13.64	240.491	-21.1295	6.32282	221.148	0.116046	17.155	261.069	1.03432	-2.80361	249.03	-11.7629	14.3421	227.775	3.63794	19.1574	236.706	41.4267	-1.16853	224.228	51.5256	20.7708	204.54	40.6231	0.35512	
54	0.45	189.529	18.1661	12.1881	184.47	-4.21849	3.24681	173.399	-18.9527	-11.752	161.813	-25.7522	-15.3922	222.877	0.848393	-48.6217	229.779	-11.9627	-64.9825	237.977	-21.1773	-78.1495	238.354	-14.7008	-29.5819	234.252	-34.7779	-6.38744	219.427	-18.4169	12.0156	248.593	-13.0743	-12.6077	240.28	-22.6861	9.48933	223.317	-3.18964	19.8327	259.501	-5.99229	-1.05289	243.955	-12.7918	15.4976	227.573	9.26615	20.9663	237.524	35.9863	-5.8454	228.078	51.3312	18.5488	207.939	39.2588	-4.85794	
55	0.458333	192.028	19.4783	9.77532	185.222	-3.78478	-1.08252	172.929	-16.0369	-9.4041	159.545	-24.6433	-18.9787	221.887	-3.34044	-47.5429	231.997	-17.1594	-60.573	238.981	-28.7649	-74.1367	239.257	-16.8079	-27.8376	233.971	-36.7658	-6.75697	219.45	-14.7082	14.3303	252.319	-12.8008	-10.8051	233.454	-24.062	9.37948	224.382	-1.38123	22.4836	260.059	-6.37268	-0.880669	244.482	-14.3608	18.7677	226.687	4.35726	19.1115	242.25	35.1622	-7.24652	230.746	50.3574	16.9957	208.936	37.9482	-6.11698	
56	0.466667	193.43	21.6921	7.72672	184.367	-2.25261	-0.226698	173.951	-14.386	-12.192	159.186	-20.3957	-17.9148	225.699	-6.61056	-45.9828	229.238	-21.3133	-57.0374	238.508	-37.8809	-72.2487	239.617	-18.5057	-27.1056	235.547	-38.0967	-6.41323	219.432	-18.0232	14.2671	249.329	-15.2574	-11.555	237.43	-25.7952	12.7937	225.994	-3.2228	22.5636	258.818	-9.90054	-0.77559	245.074	-16.6983	19.2209	231.295	5.61441	22.1192	245.779	33.6783	-4.86226	234.624	50.5951	13.83	216.023	38.3082	-6.52219	
